<svg width="512" height="512" viewBox="0 0 512 512" fill="none" xmlns="http://www.w3.org/2000/svg">
<rect width="512" height="512" fill="white"/>
<rect width="512" height="512" fill="#11AB75"/>
<path d="M122.667 289.333C122.667 336 159.333 372.667 206 372.667H306C352.667 372.667 389.333 336 389.333 289.333V222.667C389.333 187.305 375.286 153.391 350.281 128.386C325.276 103.381 291.362 89.3334 256 89.3334C220.638 89.3334 186.724 103.381 161.719 128.386C136.714 153.391 122.667 187.305 122.667 222.667V289.333Z" fill="#11AB75"/>
<path d="M206 306H189.333Z" fill="#E48E25"/>
<path d="M306 306H322.667Z" fill="#E48E25"/>
<path d="M189.333 372.667L156 422.667Z" fill="#E48E25"/>
<path d="M322.667 372.667L356 422.667Z" fill="#E48E25"/>
<path d="M206 306H189.333M306 306H322.667M189.333 372.667L156 422.667M322.667 372.667L356 422.667M122.667 243.5V289.333C122.667 336 159.333 372.667 206 372.667H306C352.667 372.667 389.333 336 389.333 289.333V243.5M122.667 243.5V222.667C122.667 187.305 136.714 153.391 161.719 128.386C170.031 120.074 179.327 112.973 189.333 107.196M122.667 243.5H189.333M389.333 243.5V222.667C389.333 187.305 375.286 153.391 350.281 128.386C341.969 120.074 332.673 112.973 322.667 107.196M389.333 243.5H322.667M189.333 243.5V107.196M189.333 243.5H322.667M189.333 107.196C209.43 95.5942 232.392 89.3334 256 89.3334C279.608 89.3334 302.57 95.5942 322.667 107.196M322.667 243.5V107.196" stroke="white" stroke-width="25" stroke-linecap="round" stroke-linejoin="round"/>
<path d="M0.000165288 0.000165288V512H512V0.000165288H0.000165288ZM512 325.5C512 332.62 512 339.74 511.96 346.865C511.925 352.865 511.855 358.86 511.695 364.855C511.34 377.92 510.57 391.1 508.25 404.025C505.895 417.135 502.05 429.335 495.985 441.245C490.025 452.95 482.24 463.665 472.95 472.95C463.66 482.235 452.95 490.025 441.245 495.985C429.335 502.045 417.135 505.895 404.025 508.25C391.105 510.575 377.925 511.34 364.855 511.695C358.86 511.86 352.86 511.925 346.865 511.96C339.745 512.005 332.625 512 325.5 512H186.5C179.38 512 172.26 512 165.135 511.96C159.135 511.925 153.14 511.855 147.145 511.695C134.08 511.34 120.9 510.57 107.975 508.25C94.8652 505.895 82.6652 502.05 70.7552 495.985C59.0502 490.025 48.3352 482.24 39.0502 472.95C29.7652 463.66 21.9752 452.95 16.0152 441.245C9.95517 429.335 6.10517 417.135 3.75017 404.025C1.42517 391.105 0.660165 377.925 0.305165 364.855C0.140165 358.86 0.0751653 352.86 0.0401653 346.865C-0.00483469 339.745 0.000165288 332.625 0.000165288 325.5V186.5C0.000165288 179.38 0.00016531 172.26 0.0401653 165.135C0.0751653 159.135 0.145165 153.14 0.305165 147.145C0.660165 134.08 1.43017 120.9 3.75017 107.975C6.10517 94.8652 9.95017 82.6652 16.0152 70.7552C21.9752 59.0502 29.7602 48.3352 39.0502 39.0502C48.3402 29.7652 59.0502 21.9752 70.7552 16.0152C82.6652 9.95517 94.8652 6.10517 107.975 3.75017C120.895 1.42517 134.075 0.660165 147.145 0.305165C153.14 0.140165 159.14 0.0751653 165.135 0.0401653C172.255 -0.00483469 179.375 0.000165288 186.5 0.000165288H325.5C332.62 0.000165288 339.74 0.00016531 346.865 0.0401653C352.865 0.0751653 358.86 0.145165 364.855 0.305165C377.92 0.660165 391.1 1.43017 404.025 3.75017C417.135 6.10517 429.335 9.95017 441.245 16.0152C452.95 21.9752 463.665 29.7602 472.95 39.0502C482.235 48.3402 490.025 59.0502 495.985 70.7552C502.045 82.6652 505.895 94.8652 508.25 107.975C510.575 120.895 511.34 134.075 511.695 147.145C511.86 153.14 511.925 159.14 511.96 165.135C512.005 172.255 512 179.375 512 186.5V325.5Z" fill="#F5F5F5"/>
</svg>
