<svg width="394" height="117" viewBox="0 0 394 117" fill="none" xmlns="http://www.w3.org/2000/svg">
<path fill-rule="evenodd" clip-rule="evenodd" d="M31.2 80.7998H60V98.9998H333.4V80.7998H362.2V77.7998C360.2 77.7998 358.6 74.9998 358.6 72.9998C358.6 70.9998 360.2 68.1998 362.2 68.1998H387.4V62.5998C385.4 62.5998 383.8 60.3998 383.8 58.3998C383.8 56.3998 385.4 54.1998 387.4 54.1998V48.5998H362.2C360.2 48.5998 358.6 45.7998 358.6 43.7998C358.6 41.7998 360.2 38.9998 362.2 38.9998V36.9998H333.4V18.7998H60V36.9998H31.2V38.9998C33.2 38.9998 34.8 41.7998 34.8 43.7998C34.8 45.7998 33.2 48.5998 31.2 48.5998H6V54.1998C8 54.1998 9.6 56.3998 9.6 58.3998C9.6 60.3998 8 62.5998 6 62.5998V68.1998H31.2C33.2 68.1998 34.8 71.5998 34.8 73.5998C34.8 75.5998 33.2 77.7998 31.2 77.7998V80.7998Z" fill="white"/>
<path fill-rule="evenodd" clip-rule="evenodd" d="M332 89.4001C332 91.4001 330.4 93.0001 328.4 93.0001H65.6C63.6 93.0001 62 91.4001 62 89.4001V80.2001C62 78.2001 60.4 76.6001 58.4 76.6001H29.2C27.2 76.6001 25.6 78.2001 25.6 80.2001C25.6 82.2001 27.2 83.8001 29.2 83.8001H53C54 83.8001 54.8 84.6001 54.8 85.6001V102C54.8 110 61.4 116.6 69.4 116.6H324.8C332.8 116.6 339.4 110 339.4 102V85.6001C339.4 84.6001 340.2 83.8001 341.2 83.8001H365C367 83.8001 368.6 82.2001 368.6 80.2001C368.6 78.2001 367 76.6001 365 76.6001H335.8C333.8 76.6001 332.2 78.2001 332.2 80.2001L332 89.4001Z" fill="#114533"/>
<path fill-rule="evenodd" clip-rule="evenodd" d="M62 27.4C62 25.4 63.6 23.8 65.6 23.8H328.4C330.4 23.8 332 25.4 332 27.4V36.6C332 38.6 333.6 40.2 335.6 40.2H364.8C366.8 40.2 368.4 38.6 368.4 36.6C368.4 34.6 366.8 33 364.8 33H341C340 33 339.2 32.2 339.2 31.2V14.6C339.2 6.6 332.6 0 324.6 0H69.2C61.2 0 54.6 6.6 54.6 14.6V31C54.6 32 53.8 32.8 52.8 32.8H29.2C27.2 32.8 25.6 34.4 25.6 36.4C25.6 38.4 27.2 40 29.2 40H58.4C60.4 40 62 38.4 62 36.4V27.4Z" fill="#114533"/>
<path fill-rule="evenodd" clip-rule="evenodd" d="M3.6 47.3999H58.4C60.4 47.3999 62 48.9999 62 50.9999C62 52.9999 60.4 54.5999 58.4 54.5999H3.6C1.6 54.5999 0 52.9999 0 50.9999C0 48.9999 1.6 47.3999 3.6 47.3999Z" fill="#114533"/>
<path fill-rule="evenodd" clip-rule="evenodd" d="M3.6 62H58.4C60.4 62 62 63.6 62 65.6C62 67.6 60.4 69.2 58.4 69.2H3.6C1.6 69.4 0 67.6 0 65.6C0 63.6 1.6 62 3.6 62Z" fill="#114533"/>
<path fill-rule="evenodd" clip-rule="evenodd" d="M335.6 47.3999H390.4C392.4 47.3999 394 48.9999 394 50.9999C394 52.9999 392.4 54.5999 390.4 54.5999H335.6C333.6 54.5999 332 52.9999 332 50.9999C332 48.9999 333.6 47.3999 335.6 47.3999Z" fill="#114533"/>
<path fill-rule="evenodd" clip-rule="evenodd" d="M335.6 62H390.4C392.4 62 394 63.6 394 65.6C394 67.6 392.4 69.2 390.4 69.2H335.6C333.6 69.2 332 67.6 332 65.6C332 63.6 333.6 62 335.6 62Z" fill="#114533"/>
<path fill-rule="evenodd" clip-rule="evenodd" d="M110.8 67.1999C110.8 58.7999 105.8 54.3999 97.4 53.1999C96.6 52.9999 95.8 52.9999 95.2 52.7999C89.2 51.7999 86.8 50.5999 86.8 47.3999C86.8 44.9999 88.2 43.1999 93 43.1999C96.4 43.1999 99.6 45.7999 100.4 48.3999C100.6 48.7999 100.8 48.7999 101.2 48.5999L109 45.3999C109.4 45.1999 109.6 44.9999 109.4 44.1999C107.6 38.5999 102.2 34.3999 93.4 34.3999C81.6 34.3999 75.6 40.3999 75.6 49.1999C75.6 57.3999 81.2 61.9999 89.2 62.7999C89.6 62.7999 90.4 62.9999 90.8 62.9999C97 63.7999 98.8 65.3999 98.8 68.1999C98.8 71.1999 96.6 72.5999 92 72.5999C87.8 72.5999 84.8 69.5999 84 67.1999C83.8667 66.7999 83.6 66.6666 83.2 66.7999L75 70.1999C74.6 70.3999 74.4 70.7999 74.8 71.3999C77 77.9999 82.8 81.5999 91.8 81.5999C102.4 81.9999 110.8 77.3999 110.8 67.1999Z" fill="#E48E25"/>
<path fill-rule="evenodd" clip-rule="evenodd" d="M167.6 80.0001C167.2 64.0001 166.8 52.6001 165.8 35.2001C165.8 35.0001 165.6 34.8001 165.6 34.6001C165.4 34.6001 165.2 34.6001 165 34.8001C158.8 40.8001 147.6 52.6001 144.8 55.8001C141.8 52.4001 130.2 40.8001 124.4 35.0001C124.2 34.8001 124 34.8001 123.8 34.8001C123.6 34.8001 123.4 35.0001 123.4 35.6001C122.8 49.0001 122.2 66.2001 122 80.4001C122 81.0001 122 80.8001 122.6 80.8001H132.6C133.2 80.8001 133.4 80.8001 133.4 79.8001L133.8 60.8001C133.8 60.8001 141.6 68.6001 144.2 71.2001C144.4 71.4001 144.6 71.6001 144.6 71.6001C144.8 71.6001 145 71.4001 145.2 71.2001C147.8 68.6001 155.4 60.8001 155.4 60.8001L155.8 80.2001C155.8 80.6001 155.8 80.8001 156.4 80.8001H167.2C167.8 80.8001 167.6 80.4001 167.6 80.0001Z" fill="#E48E25"/>
<path fill-rule="evenodd" clip-rule="evenodd" d="M224.4 79.8C217 65 207.6 46 201.6 34.2C201.6 34 201.2 34 200.8 34C200.4 34 200 34 200 34.2C194.8 44 184.2 65.2 177.4 79.8C177.2 80.4 177.2 80.8 177.8 80.8H188.8C189.6 80.8 189.8 80.6 190 80C190.6 78.4 191.6 76.2 192.4 74.2H208.6C209.2 75.8 210.2 78.4 211 80.2C211.2 80.6 211.4 80.8 211.8 80.8H224.2C224.6 80.8 224.667 80.4667 224.4 79.8ZM204.8 65.6H195.6L200.2 55.4L204.8 65.6Z" fill="#E48E25"/>
<path fill-rule="evenodd" clip-rule="evenodd" d="M275.2 79.0001C271.4 72.8001 267.6 66.0001 265.8 63.2001C269.8 61.2001 272 57.0001 272 50.8001C272 42.6001 266.6 35.6001 256.2 35.6001H235.6C235.4 35.6001 235 35.6001 235 36.2001V80.2001C235 80.6001 235.2 80.8001 235.6 80.8001H246.6C247 80.8001 247.2 80.8001 247.2 80.2001V67.6001L254.8 67.4001C254.8 67.4001 259.6 75.0001 262 79.4001C262.6 80.6001 262.8 80.8001 263.4 80.8001H275.2C275.8 80.8001 276 80.4001 275.2 79.0001ZM259.4 51.8001C259.4 55.6001 257.4 58.4001 253.8 58.4001L247.2 58.6001V45.6001H253.8C257.6 45.6001 259.4 48.2001 259.4 51.8001Z" fill="#E48E25"/>
<path fill-rule="evenodd" clip-rule="evenodd" d="M319.2 44.9998V36.3998C319.2 35.9998 319 35.7998 318.6 35.7998H283.4C282.8 35.7998 282.8 35.9998 282.8 36.3998V44.9998C282.8 45.2665 282.933 45.3998 283.2 45.3998L295 45.1998V80.1998C295 80.5998 295.2 80.7998 295.6 80.7998H306.6C307 80.7998 307.2 80.5998 307.2 80.1998V45.1998L318.6 45.3998C319.2 45.3998 319.2 45.1998 319.2 44.9998Z" fill="#E48E25"/>
<path d="M122.483 6.14844C122.566 6.16368 122.644 6.20115 122.707 6.25781L130.307 13.0576C130.313 13.0632 130.319 13.0693 130.325 13.0752C130.397 13.1473 130.47 13.221 130.544 13.2959C130.54 13.1258 130.54 12.9615 130.54 12.8008V6.60059C130.54 6.34653 130.746 6.13965 131 6.13965H132.8C133.054 6.13965 133.26 6.34653 133.26 6.60059V17.001C133.259 17.2546 133.054 17.4609 132.8 17.4609H131.4C131.288 17.4609 131.178 17.4188 131.094 17.3438L123.493 10.543C123.487 10.5374 123.48 10.5312 123.475 10.5254C123.403 10.4538 123.331 10.3801 123.258 10.3057C123.259 10.4058 123.26 10.5046 123.26 10.6006V16.8008C123.259 17.0545 123.054 17.2607 122.8 17.2607H121C120.746 17.2607 120.54 17.0545 120.54 16.8008V6.60059C120.54 6.34653 120.746 6.13965 121 6.13965H122.4L122.483 6.14844Z" fill="white"/>
<path fill-rule="evenodd" clip-rule="evenodd" d="M280.2 6.13965C281.039 6.13967 281.735 6.2943 282.213 6.73828C282.7 7.19076 282.86 7.84777 282.86 8.60059V11.001C282.86 11.7887 282.631 12.435 282.126 12.873C281.633 13.2999 280.955 13.4609 280.2 13.4609H280.03L283.702 16.6533C283.847 16.7793 283.898 16.9825 283.831 17.1621C283.764 17.3413 283.592 17.4608 283.4 17.4609H280.8C280.678 17.4609 280.561 17.4122 280.475 17.3262L276.609 13.4609H274.46V17.001C274.459 17.2546 274.254 17.4609 274 17.4609H272C271.746 17.4609 271.541 17.2546 271.54 17.001V6.60059C271.54 6.34653 271.746 6.13965 272 6.13965H280.2ZM274.46 10.9404H279.4C279.797 10.9404 279.869 10.8805 279.875 10.875C279.881 10.8687 279.94 10.7952 279.94 10.4004V9.2002C279.94 8.80436 279.881 8.73155 279.875 8.72559C279.871 8.72187 279.803 8.6602 279.4 8.66016H274.46V10.9404Z" fill="white"/>
<path d="M307.083 6.14844C307.166 6.16367 307.243 6.20113 307.307 6.25781L314.906 13.0576C314.913 13.0633 314.919 13.0692 314.925 13.0752C314.997 13.1473 315.07 13.2209 315.144 13.2959C315.14 13.1258 315.14 12.9615 315.14 12.8008V6.60059C315.14 6.34666 315.346 6.13985 315.6 6.13965H317.399C317.653 6.13965 317.859 6.34653 317.859 6.60059V17.001C317.859 17.2546 317.653 17.4609 317.399 17.4609H316C315.887 17.4608 315.778 17.4189 315.693 17.3438L308.093 10.543C308.087 10.5374 308.08 10.5313 308.074 10.5254C307.999 10.4498 307.922 10.3728 307.845 10.2939C307.853 10.3948 307.859 10.4976 307.859 10.6006V16.8008C307.859 17.0545 307.653 17.2607 307.399 17.2607H305.6C305.346 17.2605 305.14 17.0544 305.14 16.8008V6.60059C305.14 6.34666 305.346 6.13985 305.6 6.13965H307L307.083 6.14844Z" fill="white"/>
<path fill-rule="evenodd" clip-rule="evenodd" d="M98.2354 6.83984C98.7875 6.32226 99.6121 6.24409 100.608 6.33984H108C109.016 6.33984 109.826 6.48527 110.364 6.98926C110.912 7.50257 111.06 8.27552 111.06 9.2002V14.5996C111.06 15.5243 110.912 16.2972 110.364 16.8105C109.826 17.3147 109.016 17.46 108 17.46H100.6C99.6137 17.4599 98.7922 17.3734 98.2471 16.8965C97.6814 16.4015 97.54 15.6077 97.54 14.5996V9.2002C97.54 8.193 97.6816 7.35911 98.2354 6.83984ZM100.46 14.9404H108.14V8.66016H100.46V14.9404Z" fill="white"/>
<path fill-rule="evenodd" clip-rule="evenodd" d="M143.636 6.83984C144.188 6.32242 145.013 6.2441 146.009 6.33984H153.4C154.416 6.33988 155.227 6.48529 155.765 6.98926C156.312 7.50257 156.46 8.2756 156.46 9.2002V14.5996C156.46 15.5242 156.312 16.2972 155.765 16.8105C155.227 17.3146 154.416 17.4599 153.4 17.46H146C145.014 17.4599 144.193 17.3733 143.647 16.8965C143.082 16.4015 142.94 15.6077 142.94 14.5996V9.2002C142.94 8.193 143.082 7.35911 143.636 6.83984ZM145.86 14.9404H153.54V8.66016H145.86V14.9404Z" fill="white"/>
<path fill-rule="evenodd" clip-rule="evenodd" d="M196.6 6.33984C196.763 6.33984 196.913 6.42608 196.996 6.56641L202.996 16.7666C203.08 16.9088 203.081 17.0853 202.999 17.2285C202.917 17.3715 202.764 17.46 202.6 17.46H200.399C200.236 17.4598 200.085 17.3725 200.003 17.2314L198.735 15.0596H192.284L191.211 17.2051C191.133 17.3609 190.974 17.46 190.8 17.46H188.8C188.635 17.4599 188.482 17.3716 188.4 17.2285C188.319 17.0853 188.32 16.9088 188.403 16.7666L194.403 6.56641L194.438 6.5166C194.524 6.406 194.657 6.3399 194.8 6.33984H196.6ZM193.601 12.54H197.6L195.6 9.1123L193.601 12.54Z" fill="white"/>
<path fill-rule="evenodd" clip-rule="evenodd" d="M257 6.33984C257.163 6.33984 257.314 6.42598 257.396 6.56641L263.396 16.7666C263.48 16.9088 263.481 17.0853 263.399 17.2285C263.317 17.3716 263.165 17.46 263 17.46H260.8C260.636 17.4599 260.485 17.3727 260.402 17.2314L259.136 15.0596H252.664L251.397 17.2314C251.315 17.3728 251.164 17.46 251 17.46H249C248.834 17.46 248.68 17.3704 248.599 17.2256C248.517 17.0808 248.52 16.9027 248.606 16.7607L254.807 6.56055L254.841 6.51172C254.927 6.40371 255.06 6.33984 255.2 6.33984H257ZM254.001 12.54H257.999L256 9.1123L254.001 12.54Z" fill="white"/>
<path d="M168 6.13965C168.141 6.13976 168.274 6.20511 168.361 6.31543L173.177 12.4287L177.423 6.33789C177.509 6.21447 177.65 6.13965 177.801 6.13965H179.601C179.854 6.13994 180.061 6.34672 180.061 6.60059V16.8008C180.06 17.0543 179.854 17.2604 179.601 17.2607H177.801C177.547 17.2607 177.341 17.0545 177.341 16.8008V10.6543L173.771 15.4746C173.684 15.5915 173.546 15.66 173.4 15.6602H172.801C172.658 15.6602 172.523 15.5943 172.436 15.4814L168.46 10.3125V16.8008C168.46 17.0544 168.254 17.2605 168 17.2607H166.4C166.147 17.2607 165.941 17.0545 165.94 16.8008V6.60059C165.94 6.34653 166.146 6.13965 166.4 6.13965H168Z" fill="white"/>
<path d="M228.399 6.13965C228.54 6.13965 228.674 6.20501 228.761 6.31543L233.576 12.4287L237.822 6.33789C237.908 6.21452 238.05 6.13971 238.2 6.13965H240C240.254 6.13976 240.46 6.3466 240.46 6.60059V16.8008C240.46 17.0545 240.254 17.2606 240 17.2607H238.2C237.946 17.2606 237.741 17.0545 237.74 16.8008V10.6543L234.17 15.4746C234.083 15.5915 233.945 15.6602 233.8 15.6602H233.2C233.058 15.6601 232.922 15.5944 232.835 15.4814L228.859 10.3125V16.8008C228.859 17.0545 228.653 17.2607 228.399 17.2607H226.8C226.546 17.2606 226.34 17.0545 226.34 16.8008V6.60059C226.34 6.3466 226.546 6.13975 226.8 6.13965H228.399Z" fill="white"/>
<path d="M294.8 6.13965C295.054 6.13965 295.26 6.34653 295.26 6.60059V16.8008C295.259 17.0545 295.054 17.2607 294.8 17.2607H292.8C292.546 17.2606 292.34 17.0545 292.34 16.8008V6.60059C292.34 6.3466 292.546 6.13975 292.8 6.13965H294.8Z" fill="white"/>
<path d="M85.2002 6.33984C86.1018 6.33987 86.8964 6.43213 87.4551 6.85938C88.0499 7.31451 88.2607 8.0471 88.2607 9V9.2002C88.2605 9.4538 88.0543 9.65973 87.8008 9.66016H86C85.7463 9.65995 85.5402 9.45394 85.54 9.2002V8.66016H79.0605V10.3398H85.2002C86.1255 10.3399 86.889 10.4887 87.4004 11C87.9116 11.5114 88.0605 12.2749 88.0605 13.2002V14.3994C88.0605 15.2924 87.9719 16.0684 87.4863 16.5889C86.9926 17.1176 86.2091 17.2597 85.2002 17.2598H79C77.9844 17.2597 77.1736 17.1144 76.6357 16.6104C76.0882 16.097 75.9404 15.3241 75.9404 14.3994V14.2002C75.9404 13.9461 76.1463 13.7402 76.4004 13.7402H78.2002C78.4541 13.7404 78.6602 13.9463 78.6602 14.2002V14.9395H85.54V13.0596H79.4004C78.4751 13.0596 77.7116 12.9115 77.2002 12.4004C76.6888 11.889 76.5401 11.1255 76.54 10.2002V9.2002C76.54 8.30714 76.6285 7.53118 77.1143 7.01074C77.608 6.48205 78.3914 6.33984 79.4004 6.33984H85.2002Z" fill="white"/>
<path d="M212.2 10C212.8 10.0001 213.2 10.3996 213.6 10.5996C214 10.7996 214.4 11.2001 214.8 11.2002C215.2 11.2002 215.6 11.2 216 11C216.4 10.8001 216.6 10.5997 216.8 10.5996C217 10.3999 217 10.5999 217 10.7998C217 10.9998 216.2 13.3994 214.2 13.5996C213.4 13.5996 213 13.1998 212.6 12.7998C212.2 12.4001 212 12.2003 211.4 12.2002C211 12.2002 210.6 12.2004 210.4 12.4004C210.2 12.6004 210 12.7998 209.8 12.7998C209.667 12.7997 209.6 12.7329 209.6 12.5996C209.6 11.9991 210.801 10 212.2 10Z" fill="white"/>
<path d="M289.999 100.3C290.71 100.3 291.306 100.398 291.718 100.746C292.144 101.106 292.299 101.668 292.299 102.4V102.601C292.299 102.766 292.165 102.9 291.999 102.9H290.799C290.634 102.9 290.5 102.766 290.499 102.601V102.101H285.299V103.9H290.2C290.997 103.9 291.617 103.993 292.012 104.389C292.407 104.784 292.499 105.403 292.499 106.2V107.2C292.499 107.998 292.407 108.617 292.012 109.013C291.617 109.408 290.997 109.501 290.2 109.501H285.2C284.402 109.501 283.782 109.408 283.387 109.013C282.992 108.617 282.9 107.998 282.9 107.2V107.001C282.9 106.835 283.034 106.7 283.2 106.7H284.6C284.765 106.7 284.9 106.835 284.9 107.001V107.7H290.499V105.7H285.6C284.802 105.7 284.183 105.608 283.787 105.213C283.392 104.818 283.299 104.198 283.299 103.4V102.601C283.299 101.779 283.451 101.168 283.871 100.78C284.286 100.398 284.89 100.3 285.6 100.3H289.999Z" fill="white"/>
<path fill-rule="evenodd" clip-rule="evenodd" d="M82.5999 100.3C82.7093 100.3 82.8099 100.36 82.8626 100.456L87.4632 108.856C87.5139 108.949 87.5121 109.062 87.4583 109.153C87.4043 109.244 87.3054 109.301 87.1995 109.301H85.5999C85.4865 109.301 85.3822 109.236 85.3314 109.135L84.4144 107.301H79.1849L78.2679 109.135C78.217 109.236 78.1136 109.301 78.0003 109.301H76.5999C76.4941 109.301 76.3962 109.244 76.3421 109.153C76.2882 109.062 76.2866 108.949 76.3372 108.856L80.9368 100.456L80.9847 100.392C81.0403 100.334 81.1175 100.3 81.1995 100.3H82.5999ZM80.0853 105.501H83.515L81.8001 102.071L80.0853 105.501Z" fill="white"/>
<path fill-rule="evenodd" clip-rule="evenodd" d="M100.8 100.3C101.42 100.3 101.96 100.401 102.342 100.72C102.737 101.049 102.901 101.555 102.901 102.2V104.001C102.901 104.646 102.738 105.152 102.342 105.481C101.96 105.8 101.42 105.9 100.8 105.9H100.422L103.593 108.571C103.689 108.652 103.725 108.785 103.682 108.903C103.639 109.021 103.526 109.1 103.401 109.101H101.401C101.325 109.101 101.25 109.072 101.195 109.02L97.8802 105.9H95.9007V109.001C95.9002 109.166 95.7652 109.301 95.5999 109.301H94.0003C93.8349 109.301 93.701 109.166 93.7005 109.001V100.601C93.7005 100.435 93.8346 100.3 94.0003 100.3H100.8ZM95.9007 104.101H100.401C100.606 104.101 100.752 104.101 100.866 104.09C100.98 104.079 101.021 104.059 101.034 104.051C101.034 104.051 101.051 104.043 101.068 103.982C101.088 103.91 101.1 103.793 101.1 103.601V102.4C101.1 102.175 101.03 102.076 100.951 102.02C100.851 101.949 100.677 101.9 100.401 101.9H95.9007V104.101Z" fill="white"/>
<path d="M118.6 100.3C118.766 100.3 118.9 100.435 118.9 100.601V101.601C118.899 101.766 118.765 101.9 118.6 101.9H112.3V103.7H116C116.166 103.7 116.3 103.835 116.3 104.001V105.2C116.3 105.366 116.166 105.501 116 105.501H112.3V107.501H118.8C118.966 107.501 119.1 107.635 119.1 107.801V109.001C119.099 109.166 118.965 109.301 118.8 109.301H110.6C110.435 109.301 110.301 109.166 110.3 109.001V100.601C110.3 100.435 110.434 100.3 110.6 100.3H118.6Z" fill="white"/>
<path fill-rule="evenodd" clip-rule="evenodd" d="M130.6 100.3C130.709 100.3 130.81 100.36 130.863 100.456L135.463 108.856C135.514 108.949 135.512 109.062 135.458 109.153C135.404 109.244 135.305 109.301 135.2 109.301H133.6C133.486 109.301 133.382 109.236 133.331 109.135L132.414 107.301H127.185L126.268 109.135C126.217 109.236 126.114 109.301 126 109.301H124.6C124.495 109.301 124.397 109.246 124.343 109.156C124.289 109.067 124.286 108.954 124.334 108.861L128.734 100.461L128.782 100.395C128.837 100.335 128.917 100.3 129 100.3H130.6ZM128.085 105.501H131.515L129.8 102.071L128.085 105.501Z" fill="white"/>
<path fill-rule="evenodd" clip-rule="evenodd" d="M158.999 100.3C159.62 100.3 160.159 100.401 160.541 100.72C160.937 101.049 161.1 101.554 161.1 102.2V104.001C161.1 104.646 160.937 105.152 160.541 105.481C160.159 105.8 159.619 105.9 158.999 105.9H158.588L161.599 108.576C161.692 108.659 161.724 108.791 161.68 108.907C161.636 109.023 161.524 109.101 161.4 109.101H159.4C159.324 109.1 159.249 109.072 159.194 109.02L155.88 105.9H153.9V109.001C153.899 109.166 153.765 109.301 153.6 109.301H152.2C152.034 109.301 151.9 109.166 151.9 109.001V100.601C151.9 100.435 152.034 100.3 152.2 100.3H158.999ZM153.9 104.101H158.4C158.604 104.101 158.751 104.101 158.865 104.09C158.978 104.079 159.02 104.059 159.034 104.051C159.036 104.049 159.051 104.039 159.067 103.982C159.087 103.91 159.1 103.793 159.1 103.601V102.4C159.1 102.175 159.03 102.076 158.951 102.02C158.851 101.949 158.677 101.9 158.4 101.9H153.9V104.101Z" fill="white"/>
<path fill-rule="evenodd" clip-rule="evenodd" d="M173.4 100.3C173.509 100.3 173.61 100.36 173.662 100.456L178.263 108.856C178.314 108.949 178.312 109.062 178.258 109.153C178.204 109.244 178.105 109.301 177.999 109.301H176.4C176.286 109.301 176.182 109.236 176.131 109.135L175.214 107.301H169.985L169.068 109.135C169.017 109.236 168.913 109.301 168.8 109.301H167.4C167.294 109.301 167.196 109.244 167.142 109.153C167.088 109.062 167.086 108.949 167.137 108.856L171.737 100.456L171.785 100.392C171.84 100.334 171.917 100.3 171.999 100.3H173.4ZM170.885 105.501H174.315L172.6 102.071L170.885 105.501Z" fill="white"/>
<path d="M186.401 100.3C186.566 100.3 186.701 100.435 186.701 100.601V109.001C186.7 109.166 186.566 109.3 186.401 109.301H185C184.835 109.301 184.701 109.166 184.701 109.001V100.601C184.701 100.435 184.835 100.3 185 100.3H186.401Z" fill="white"/>
<path d="M196.201 100.3C196.366 100.3 196.5 100.435 196.5 100.601V107.501H202.6C202.766 107.501 202.9 107.635 202.9 107.801V109.001C202.899 109.166 202.765 109.301 202.6 109.301H194.8C194.635 109.301 194.501 109.166 194.5 109.001V100.601C194.5 100.435 194.634 100.3 194.8 100.3H196.201Z" fill="white"/>
<path d="M226.8 100.3C226.966 100.3 227.1 100.435 227.1 100.601V101.801C227.1 101.966 226.965 102.1 226.8 102.101H223.1V109.001C223.099 109.166 222.965 109.301 222.8 109.301H221.4C221.234 109.301 221.1 109.166 221.1 109.001V102.101H217.6C217.434 102.101 217.3 101.966 217.3 101.801V100.601C217.3 100.435 217.434 100.3 217.6 100.3H226.8Z" fill="white"/>
<path fill-rule="evenodd" clip-rule="evenodd" d="M239.8 100.3C240.42 100.3 240.96 100.401 241.342 100.72C241.737 101.049 241.901 101.555 241.901 102.2V104.001C241.901 104.646 241.738 105.152 241.342 105.481C240.96 105.8 240.42 105.9 239.8 105.9H239.422L242.593 108.571C242.689 108.652 242.725 108.785 242.682 108.903C242.639 109.021 242.526 109.1 242.401 109.101H240.401C240.325 109.101 240.25 109.072 240.195 109.02L236.88 105.9H234.901V109.001C234.9 109.166 234.765 109.301 234.6 109.301H233C232.835 109.301 232.701 109.166 232.701 109.001V100.601C232.701 100.435 232.835 100.3 233 100.3H239.8ZM234.901 104.101H239.401C239.606 104.101 239.752 104.101 239.866 104.09C239.98 104.079 240.021 104.059 240.034 104.051C240.034 104.051 240.051 104.043 240.068 103.982C240.088 103.91 240.1 103.793 240.1 103.601V102.4C240.1 102.175 240.03 102.076 239.951 102.02C239.851 101.949 239.677 101.9 239.401 101.9H234.901V104.101Z" fill="white"/>
<path fill-rule="evenodd" clip-rule="evenodd" d="M254.4 100.3C254.509 100.3 254.61 100.36 254.662 100.456L259.263 108.856C259.314 108.949 259.312 109.062 259.258 109.153C259.204 109.244 259.105 109.301 258.999 109.301H257.4C257.286 109.301 257.182 109.236 257.131 109.135L256.214 107.301H250.985L250.068 109.135C250.017 109.236 249.913 109.301 249.8 109.301H248.4C248.295 109.301 248.197 109.246 248.143 109.156C248.089 109.067 248.086 108.954 248.134 108.861L252.534 100.461L252.581 100.395C252.637 100.335 252.716 100.3 252.8 100.3H254.4ZM251.885 105.501H255.315L253.6 102.071L251.885 105.501Z" fill="white"/>
<path d="M266.8 100.3C266.874 100.3 266.946 100.328 267.001 100.378L273.185 105.962C273.319 106.036 273.432 106.126 273.533 106.223C273.5 105.856 273.5 105.523 273.5 105.2V100.601C273.5 100.435 273.634 100.3 273.8 100.3H275C275.166 100.3 275.3 100.435 275.3 100.601V109.001C275.3 109.166 275.166 109.301 275 109.301H274.201C274.126 109.301 274.054 109.272 273.998 109.223L267.599 103.423C267.596 103.42 267.592 103.416 267.588 103.413C267.517 103.342 267.415 103.236 267.3 103.111V109.001C267.3 109.166 267.166 109.301 267 109.301H265.8C265.635 109.301 265.501 109.166 265.5 109.001C265.5 108.87 265.584 108.76 265.701 108.719V100.601C265.701 100.435 265.835 100.3 266 100.3H266.8Z" fill="white"/>
<path d="M301.8 100.3C301.966 100.3 302.1 100.435 302.1 100.601V109.001C302.099 109.166 301.965 109.301 301.8 109.301H300.4C300.234 109.301 300.1 109.166 300.1 109.001V100.601C300.1 100.435 300.234 100.3 300.4 100.3H301.8Z" fill="white"/>
<path d="M317.4 100.3C317.565 100.3 317.7 100.435 317.7 100.601V101.801C317.699 101.966 317.565 102.1 317.4 102.101H313.9V109.001C313.899 109.166 313.765 109.301 313.6 109.301H312.2C312.034 109.301 311.9 109.166 311.9 109.001V102.101H308.2C308.034 102.1 307.9 101.966 307.9 101.801V100.601C307.9 100.435 308.034 100.3 308.2 100.3H317.4Z" fill="white"/>
</svg>
